<svg width="24" height="24" viewBox="0 0 24 24" fill="none" xmlns="http://www.w3.org/2000/svg">
<path d="M11.4336 4.05517C9.93626 4.24774 8.60492 4.78559 7.38314 5.69196C6.88513 6.06381 6.05511 6.89382 5.68327 7.39183C5.06574 8.22516 4.63745 9.06514 4.34861 10.0213C4.09628 10.8513 4 11.5519 4 12.5047C4 13.4576 4.09628 14.1581 4.34861 14.9881C4.76361 16.3527 5.4409 17.4715 6.4834 18.5173C7.53254 19.5632 8.64808 20.2371 10.0193 20.6521C10.8924 20.9177 11.6428 21.0173 12.6786 20.9974C13.3294 20.9875 13.3858 20.9808 13.5186 20.9111C13.7278 20.7982 13.8572 20.5791 13.8572 20.3367C13.8572 20.101 13.8174 19.9914 13.6813 19.8487C13.4987 19.6561 13.429 19.6428 12.6521 19.6428C11.7623 19.6428 11.3639 19.5964 10.6501 19.4104C9.45817 19.095 8.35923 18.4576 7.45286 17.5479C6.38048 16.4755 5.72311 15.2139 5.43426 13.6667C5.35126 13.2152 5.35126 11.7942 5.43426 11.3427C5.72311 9.79555 6.38048 8.53393 7.45286 7.46155C8.51859 6.39249 9.80346 5.72516 11.3174 5.44628C11.7092 5.37656 12.8048 5.34667 13.253 5.39648C15.0425 5.59236 16.7789 6.50537 17.9243 7.85664C18.0571 8.01268 18.2696 8.29488 18.4024 8.48745L18.6414 8.83605L17.6189 8.85265C16.6195 8.86925 16.593 8.87257 16.4701 8.94561C16.0551 9.20458 16.0784 9.87523 16.51 10.1043C16.656 10.1807 16.6627 10.1807 17.921 10.1807C19.3021 10.1807 19.3818 10.1707 19.7902 9.98147C20.2251 9.77895 20.5638 9.44694 20.7796 9.0087C20.9854 8.58041 20.9954 8.51069 20.9954 7.14614C20.9954 5.96421 20.992 5.9144 20.9256 5.77164C20.8825 5.68532 20.7995 5.59236 20.7198 5.53924C20.6036 5.46288 20.5505 5.4496 20.3314 5.4496C20.1122 5.4496 20.0591 5.46288 19.9429 5.53924C19.8632 5.59236 19.7802 5.68532 19.7371 5.77164C19.6707 5.91108 19.6673 5.96753 19.6673 6.91042V7.90312L19.5047 7.66739C19.0664 7.02662 18.2596 6.18333 17.6653 5.73844C16.5299 4.88519 15.3114 4.36062 13.8738 4.10165C13.3626 4.00869 11.9814 3.98213 11.4336 4.05517Z" fill="#0077FF"/>
<path d="M12.171 6.59813C12.088 6.64129 11.9884 6.72761 11.9386 6.80398L11.849 6.9401L11.839 9.56294L11.8324 12.1891L10.5741 13.4507C9.88352 14.1446 9.28923 14.7655 9.25603 14.8285C9.13983 15.0643 9.20955 15.466 9.39547 15.6287C9.61791 15.8246 9.96652 15.8611 10.2089 15.715C10.4247 15.5888 13.0442 12.9494 13.1106 12.7967C13.1538 12.6871 13.1604 12.3186 13.1604 9.84183C13.1604 7.02974 13.1604 7.01314 13.0907 6.86706C12.9878 6.65457 12.8085 6.54833 12.5329 6.53505C12.357 6.52841 12.2839 6.53837 12.171 6.59813Z" fill="#0077FF"/>
<path d="M19.8728 13.5869C19.647 13.6998 19.5673 13.8392 19.4312 14.3604C19.3183 14.8053 19.3183 14.9415 19.4246 15.1539C19.6371 15.5623 20.2811 15.6088 20.5567 15.2336C20.6928 15.0444 20.8788 14.3173 20.8489 14.0849C20.7958 13.6168 20.3077 13.3677 19.8728 13.5869Z" fill="#0077FF"/>
<path d="M18.595 16.5349C18.4357 16.5947 18.3826 16.6412 18.107 16.9698C17.8181 17.3151 17.7717 17.3915 17.7385 17.5608C17.6953 17.7899 17.7617 18.0024 17.9211 18.1651C18.1435 18.3875 18.4423 18.4273 18.7378 18.2813C18.8739 18.2115 19.3952 17.5841 19.4549 17.4114C19.5711 17.096 19.4284 16.7242 19.1329 16.5714C18.9968 16.4984 18.7378 16.4818 18.595 16.5349Z" fill="#0077FF"/>
<path d="M15.7931 18.8591C15.2254 19.138 15.0859 19.2941 15.0859 19.6526C15.0859 20.0344 15.3681 20.3167 15.7433 20.3167C15.9126 20.3167 15.9824 20.2934 16.3741 20.0942C16.902 19.8253 16.985 19.7323 17.0049 19.3937C17.0315 18.982 16.7493 18.6799 16.3376 18.6799C16.1882 18.6799 16.0986 18.7097 15.7931 18.8591Z" fill="#0077FF"/>
</svg>
