<svg width="235" height="37" viewBox="0 0 235 37" fill="none" xmlns="http://www.w3.org/2000/svg">
<path d="M5.51562 18.6401H2.47656V17.4136H5.51562C6.10417 17.4136 6.58073 17.3198 6.94531 17.1323C7.3099 16.9448 7.57552 16.6844 7.74219 16.3511C7.91406 16.0177 8 15.6375 8 15.2104C8 14.8198 7.91406 14.4526 7.74219 14.1089C7.57552 13.7651 7.3099 13.4891 6.94531 13.2808C6.58073 13.0672 6.10417 12.9604 5.51562 12.9604H2.82812V23.1011H1.32031V11.7261H5.51562C6.375 11.7261 7.10156 11.8745 7.69531 12.1714C8.28906 12.4683 8.73958 12.8797 9.04688 13.4058C9.35417 13.9266 9.50781 14.5229 9.50781 15.1948C9.50781 15.924 9.35417 16.5464 9.04688 17.062C8.73958 17.5776 8.28906 17.9709 7.69531 18.2417C7.10156 18.5073 6.375 18.6401 5.51562 18.6401ZM16.0859 21.6558V17.3042C16.0859 16.9709 16.0182 16.6818 15.8828 16.437C15.7526 16.187 15.5547 15.9943 15.2891 15.8589C15.0234 15.7235 14.6953 15.6558 14.3047 15.6558C13.9401 15.6558 13.6198 15.7183 13.3438 15.8433C13.0729 15.9683 12.8594 16.1323 12.7031 16.3354C12.5521 16.5386 12.4766 16.7573 12.4766 16.9917H11.0312C11.0312 16.6896 11.1094 16.3901 11.2656 16.0933C11.4219 15.7964 11.6458 15.5282 11.9375 15.2886C12.2344 15.0438 12.5885 14.8511 13 14.7104C13.4167 14.5646 13.8802 14.4917 14.3906 14.4917C15.0052 14.4917 15.5469 14.5959 16.0156 14.8042C16.4896 15.0125 16.8594 15.3276 17.125 15.7495C17.3958 16.1662 17.5312 16.6896 17.5312 17.3198V21.2573C17.5312 21.5386 17.5547 21.8381 17.6016 22.1558C17.6536 22.4735 17.7292 22.7469 17.8281 22.9761V23.1011H16.3203C16.2474 22.9344 16.1901 22.7131 16.1484 22.437C16.1068 22.1558 16.0859 21.8953 16.0859 21.6558ZM16.3359 17.9761L16.3516 18.9917H14.8906C14.4792 18.9917 14.112 19.0256 13.7891 19.0933C13.4661 19.1558 13.1953 19.2521 12.9766 19.3823C12.7578 19.5125 12.5911 19.6766 12.4766 19.8745C12.362 20.0672 12.3047 20.2938 12.3047 20.5542C12.3047 20.8198 12.3646 21.062 12.4844 21.2808C12.6042 21.4995 12.7839 21.674 13.0234 21.8042C13.2682 21.9292 13.5677 21.9917 13.9219 21.9917C14.3646 21.9917 14.7552 21.8979 15.0938 21.7104C15.4323 21.5229 15.7005 21.2938 15.8984 21.0229C16.1016 20.7521 16.2109 20.4891 16.2266 20.2339L16.8438 20.9292C16.8073 21.1479 16.7083 21.3901 16.5469 21.6558C16.3854 21.9214 16.1693 22.1766 15.8984 22.4214C15.6328 22.661 15.3151 22.8615 14.9453 23.0229C14.5807 23.1792 14.1693 23.2573 13.7109 23.2573C13.138 23.2573 12.6354 23.1453 12.2031 22.9214C11.776 22.6974 11.4427 22.3979 11.2031 22.0229C10.9688 21.6427 10.8516 21.2183 10.8516 20.7495C10.8516 20.2964 10.9401 19.8979 11.1172 19.5542C11.2943 19.2052 11.5495 18.9162 11.8828 18.687C12.2161 18.4526 12.6172 18.2756 13.0859 18.1558C13.5547 18.036 14.0781 17.9761 14.6562 17.9761H16.3359ZM22.9609 19.062H21.4062V18.1714H22.8438C23.2448 18.1714 23.5625 18.1219 23.7969 18.0229C24.0312 17.9188 24.1979 17.7756 24.2969 17.5933C24.3958 17.411 24.4453 17.1974 24.4453 16.9526C24.4453 16.7339 24.388 16.5282 24.2734 16.3354C24.1641 16.1375 23.987 15.9787 23.7422 15.8589C23.4974 15.7339 23.1693 15.6714 22.7578 15.6714C22.4245 15.6714 22.1224 15.7313 21.8516 15.8511C21.5807 15.9657 21.3646 16.1245 21.2031 16.3276C21.0469 16.5256 20.9688 16.7495 20.9688 16.9995H19.5234C19.5234 16.4839 19.6693 16.0412 19.9609 15.6714C20.2578 15.2964 20.651 15.0073 21.1406 14.8042C21.6354 14.6011 22.1745 14.4995 22.7578 14.4995C23.2474 14.4995 23.6849 14.5542 24.0703 14.6636C24.4609 14.7677 24.7917 14.924 25.0625 15.1323C25.3333 15.3354 25.5391 15.5907 25.6797 15.8979C25.8255 16.2 25.8984 16.5516 25.8984 16.9526C25.8984 17.2391 25.8307 17.5099 25.6953 17.7651C25.5599 18.0203 25.3646 18.2469 25.1094 18.4448C24.8542 18.6375 24.5443 18.7886 24.1797 18.8979C23.8203 19.0073 23.4141 19.062 22.9609 19.062ZM21.4062 18.5151H22.9609C23.4661 18.5151 23.9115 18.5646 24.2969 18.6636C24.6823 18.7573 25.0052 18.8979 25.2656 19.0854C25.526 19.2729 25.7214 19.5047 25.8516 19.7808C25.987 20.0516 26.0547 20.3641 26.0547 20.7183C26.0547 21.1141 25.974 21.4709 25.8125 21.7886C25.6562 22.1011 25.4323 22.3667 25.1406 22.5854C24.849 22.8042 24.5 22.9709 24.0938 23.0854C23.6927 23.2 23.2474 23.2573 22.7578 23.2573C22.2109 23.2573 21.6797 23.1636 21.1641 22.9761C20.6484 22.7886 20.224 22.4995 19.8906 22.1089C19.5573 21.7131 19.3906 21.2104 19.3906 20.6011H20.8359C20.8359 20.8563 20.9167 21.0985 21.0781 21.3276C21.2396 21.5568 21.4635 21.7417 21.75 21.8823C22.0417 22.0229 22.3776 22.0933 22.7578 22.0933C23.1641 22.0933 23.5026 22.0308 23.7734 21.9058C24.0443 21.7808 24.2474 21.6141 24.3828 21.4058C24.5234 21.1974 24.5938 20.9709 24.5938 20.7261C24.5938 20.4084 24.5312 20.1532 24.4062 19.9604C24.2812 19.7677 24.0885 19.6271 23.8281 19.5386C23.5729 19.4448 23.2448 19.3979 22.8438 19.3979H21.4062V18.5151ZM29.375 16.2729V26.3511H27.9219V14.6479H29.25L29.375 16.2729ZM35.0703 18.8042V18.9683C35.0703 19.5828 34.9974 20.1532 34.8516 20.6792C34.7057 21.2 34.4922 21.6532 34.2109 22.0386C33.9349 22.424 33.5938 22.7235 33.1875 22.937C32.7812 23.1506 32.3151 23.2573 31.7891 23.2573C31.2526 23.2573 30.7786 23.1688 30.3672 22.9917C29.9557 22.8146 29.6068 22.5568 29.3203 22.2183C29.0339 21.8797 28.8047 21.4735 28.6328 20.9995C28.4661 20.5256 28.3516 19.9917 28.2891 19.3979V18.5229C28.3516 17.8979 28.4688 17.3381 28.6406 16.8433C28.8125 16.3485 29.0391 15.9266 29.3203 15.5776C29.6068 15.2235 29.9531 14.9552 30.3594 14.7729C30.7656 14.5854 31.2344 14.4917 31.7656 14.4917C32.2969 14.4917 32.7682 14.5959 33.1797 14.8042C33.5911 15.0073 33.9375 15.299 34.2188 15.6792C34.5 16.0594 34.7109 16.5151 34.8516 17.0464C34.9974 17.5724 35.0703 18.1584 35.0703 18.8042ZM33.6172 18.9683V18.8042C33.6172 18.3823 33.5729 17.9865 33.4844 17.6167C33.3958 17.2417 33.2578 16.9136 33.0703 16.6323C32.888 16.3459 32.6536 16.1219 32.3672 15.9604C32.0807 15.7938 31.7396 15.7104 31.3438 15.7104C30.9792 15.7104 30.6615 15.7729 30.3906 15.8979C30.125 16.0229 29.8984 16.1922 29.7109 16.4058C29.5234 16.6141 29.3698 16.8537 29.25 17.1245C29.1354 17.3901 29.0495 17.6662 28.9922 17.9526V19.9761C29.0964 20.3407 29.2422 20.6844 29.4297 21.0073C29.6172 21.325 29.8672 21.5828 30.1797 21.7808C30.4922 21.9735 30.8854 22.0698 31.3594 22.0698C31.75 22.0698 32.0859 21.9891 32.3672 21.8276C32.6536 21.661 32.888 21.4344 33.0703 21.1479C33.2578 20.8615 33.3958 20.5334 33.4844 20.1636C33.5729 19.7886 33.6172 19.3901 33.6172 18.9683ZM41.8984 21.6558V17.3042C41.8984 16.9709 41.8307 16.6818 41.6953 16.437C41.5651 16.187 41.3672 15.9943 41.1016 15.8589C40.8359 15.7235 40.5078 15.6558 40.1172 15.6558C39.7526 15.6558 39.4323 15.7183 39.1562 15.8433C38.8854 15.9683 38.6719 16.1323 38.5156 16.3354C38.3646 16.5386 38.2891 16.7573 38.2891 16.9917H36.8438C36.8438 16.6896 36.9219 16.3901 37.0781 16.0933C37.2344 15.7964 37.4583 15.5282 37.75 15.2886C38.0469 15.0438 38.401 14.8511 38.8125 14.7104C39.2292 14.5646 39.6927 14.4917 40.2031 14.4917C40.8177 14.4917 41.3594 14.5959 41.8281 14.8042C42.3021 15.0125 42.6719 15.3276 42.9375 15.7495C43.2083 16.1662 43.3438 16.6896 43.3438 17.3198V21.2573C43.3438 21.5386 43.3672 21.8381 43.4141 22.1558C43.4661 22.4735 43.5417 22.7469 43.6406 22.9761V23.1011H42.1328C42.0599 22.9344 42.0026 22.7131 41.9609 22.437C41.9193 22.1558 41.8984 21.8953 41.8984 21.6558ZM42.1484 17.9761L42.1641 18.9917H40.7031C40.2917 18.9917 39.9245 19.0256 39.6016 19.0933C39.2786 19.1558 39.0078 19.2521 38.7891 19.3823C38.5703 19.5125 38.4036 19.6766 38.2891 19.8745C38.1745 20.0672 38.1172 20.2938 38.1172 20.5542C38.1172 20.8198 38.1771 21.062 38.2969 21.2808C38.4167 21.4995 38.5964 21.674 38.8359 21.8042C39.0807 21.9292 39.3802 21.9917 39.7344 21.9917C40.1771 21.9917 40.5677 21.8979 40.9062 21.7104C41.2448 21.5229 41.513 21.2938 41.7109 21.0229C41.9141 20.7521 42.0234 20.4891 42.0391 20.2339L42.6562 20.9292C42.6198 21.1479 42.5208 21.3901 42.3594 21.6558C42.1979 21.9214 41.9818 22.1766 41.7109 22.4214C41.4453 22.661 41.1276 22.8615 40.7578 23.0229C40.3932 23.1792 39.9818 23.2573 39.5234 23.2573C38.9505 23.2573 38.4479 23.1453 38.0156 22.9214C37.5885 22.6974 37.2552 22.3979 37.0156 22.0229C36.7812 21.6427 36.6641 21.2183 36.6641 20.7495C36.6641 20.2964 36.7526 19.8979 36.9297 19.5542C37.1068 19.2052 37.362 18.9162 37.6953 18.687C38.0286 18.4526 38.4297 18.2756 38.8984 18.1558C39.3672 18.036 39.8906 17.9761 40.4688 17.9761H42.1484ZM51.0391 10.9683H52.2266C52.2266 11.4787 52.1484 11.8849 51.9922 12.187C51.8359 12.4839 51.6224 12.7131 51.3516 12.8745C51.0859 13.036 50.7839 13.1584 50.4453 13.2417C50.112 13.325 49.7656 13.4058 49.4062 13.4839C48.9583 13.5776 48.5417 13.7261 48.1562 13.9292C47.776 14.1271 47.4479 14.4084 47.1719 14.7729C46.901 15.1375 46.7005 15.6115 46.5703 16.1948C46.4453 16.7782 46.4115 17.4995 46.4688 18.3589V19.0776H45.2812V18.3589C45.2812 17.3953 45.3724 16.5542 45.5547 15.8354C45.7422 15.1167 46.0052 14.5099 46.3438 14.0151C46.6823 13.5203 47.0833 13.1271 47.5469 12.8354C48.0156 12.5438 48.5312 12.3433 49.0938 12.2339C49.5 12.1558 49.849 12.0724 50.1406 11.9839C50.4323 11.8901 50.6536 11.7651 50.8047 11.6089C50.9609 11.4526 51.0391 11.2391 51.0391 10.9683ZM49.3281 15.1323C49.8802 15.1323 50.3724 15.2287 50.8047 15.4214C51.237 15.6141 51.6042 15.8823 51.9062 16.2261C52.2083 16.5698 52.4375 16.9761 52.5938 17.4448C52.7552 17.9084 52.8359 18.4136 52.8359 18.9604V19.1323C52.8359 19.7209 52.75 20.2677 52.5781 20.7729C52.4115 21.2729 52.1641 21.7104 51.8359 22.0854C51.513 22.4552 51.1172 22.7443 50.6484 22.9526C50.1849 23.161 49.6562 23.2651 49.0625 23.2651C48.4688 23.2651 47.9375 23.161 47.4688 22.9526C47.0052 22.7443 46.6094 22.4552 46.2812 22.0854C45.9531 21.7104 45.7031 21.2729 45.5312 20.7729C45.3646 20.2677 45.2812 19.7209 45.2812 19.1323V18.9604C45.2812 18.8302 45.3047 18.7026 45.3516 18.5776C45.3984 18.4526 45.4557 18.325 45.5234 18.1948C45.5964 18.0646 45.6615 17.9266 45.7188 17.7808C45.9115 17.312 46.1745 16.8771 46.5078 16.4761C46.8464 16.075 47.25 15.7521 47.7188 15.5073C48.1927 15.2573 48.7292 15.1323 49.3281 15.1323ZM49.0469 16.312C48.5156 16.312 48.0781 16.4344 47.7344 16.6792C47.3958 16.924 47.1432 17.2495 46.9766 17.6558C46.8099 18.0568 46.7266 18.4917 46.7266 18.9604V19.1323C46.7266 19.5282 46.7734 19.9032 46.8672 20.2573C46.9609 20.6115 47.1016 20.9266 47.2891 21.2026C47.4818 21.4735 47.724 21.687 48.0156 21.8433C48.3125 21.9995 48.6615 22.0776 49.0625 22.0776C49.4635 22.0776 49.8099 21.9995 50.1016 21.8433C50.3932 21.687 50.6328 21.4735 50.8203 21.2026C51.0078 20.9266 51.1484 20.6115 51.2422 20.2573C51.3359 19.9032 51.3828 19.5282 51.3828 19.1323V18.9604C51.3828 18.6063 51.3359 18.2703 51.2422 17.9526C51.1484 17.6349 51.0052 17.3537 50.8125 17.1089C50.625 16.8641 50.3828 16.6714 50.0859 16.5308C49.7943 16.3849 49.4479 16.312 49.0469 16.312ZM54.0938 18.9683V18.7886C54.0938 18.1792 54.1823 17.6141 54.3594 17.0933C54.5365 16.5672 54.7917 16.1115 55.125 15.7261C55.4583 15.3354 55.862 15.0334 56.3359 14.8198C56.8099 14.6011 57.3411 14.4917 57.9297 14.4917C58.5234 14.4917 59.0573 14.6011 59.5312 14.8198C60.0104 15.0334 60.4167 15.3354 60.75 15.7261C61.0885 16.1115 61.3464 16.5672 61.5234 17.0933C61.7005 17.6141 61.7891 18.1792 61.7891 18.7886V18.9683C61.7891 19.5776 61.7005 20.1427 61.5234 20.6636C61.3464 21.1844 61.0885 21.6401 60.75 22.0308C60.4167 22.4162 60.013 22.7183 59.5391 22.937C59.0703 23.1506 58.5391 23.2573 57.9453 23.2573C57.3516 23.2573 56.8177 23.1506 56.3438 22.937C55.8698 22.7183 55.4635 22.4162 55.125 22.0308C54.7917 21.6401 54.5365 21.1844 54.3594 20.6636C54.1823 20.1427 54.0938 19.5776 54.0938 18.9683ZM55.5391 18.7886V18.9683C55.5391 19.3901 55.5885 19.7886 55.6875 20.1636C55.7865 20.5334 55.9349 20.8615 56.1328 21.1479C56.3359 21.4344 56.5885 21.661 56.8906 21.8276C57.1927 21.9891 57.5443 22.0698 57.9453 22.0698C58.3411 22.0698 58.6875 21.9891 58.9844 21.8276C59.2865 21.661 59.5365 21.4344 59.7344 21.1479C59.9323 20.8615 60.0807 20.5334 60.1797 20.1636C60.2839 19.7886 60.3359 19.3901 60.3359 18.9683V18.7886C60.3359 18.3719 60.2839 17.9787 60.1797 17.6089C60.0807 17.2339 59.9297 16.9032 59.7266 16.6167C59.5286 16.325 59.2786 16.0959 58.9766 15.9292C58.6797 15.7625 58.3307 15.6792 57.9297 15.6792C57.5339 15.6792 57.1849 15.7625 56.8828 15.9292C56.5859 16.0959 56.3359 16.325 56.1328 16.6167C55.9349 16.9032 55.7865 17.2339 55.6875 17.6089C55.5885 17.9787 55.5391 18.3719 55.5391 18.7886ZM66.875 14.6479V23.1011H65.4219V14.6479H66.875ZM69.7109 14.6479V15.8198H62.6406V14.6479H69.7109ZM75.9922 21.6558V17.3042C75.9922 16.9709 75.9245 16.6818 75.7891 16.437C75.6589 16.187 75.4609 15.9943 75.1953 15.8589C74.9297 15.7235 74.6016 15.6558 74.2109 15.6558C73.8464 15.6558 73.526 15.7183 73.25 15.8433C72.9792 15.9683 72.7656 16.1323 72.6094 16.3354C72.4583 16.5386 72.3828 16.7573 72.3828 16.9917H70.9375C70.9375 16.6896 71.0156 16.3901 71.1719 16.0933C71.3281 15.7964 71.5521 15.5282 71.8438 15.2886C72.1406 15.0438 72.4948 14.8511 72.9062 14.7104C73.3229 14.5646 73.7865 14.4917 74.2969 14.4917C74.9115 14.4917 75.4531 14.5959 75.9219 14.8042C76.3958 15.0125 76.7656 15.3276 77.0312 15.7495C77.3021 16.1662 77.4375 16.6896 77.4375 17.3198V21.2573C77.4375 21.5386 77.4609 21.8381 77.5078 22.1558C77.5599 22.4735 77.6354 22.7469 77.7344 22.9761V23.1011H76.2266C76.1536 22.9344 76.0964 22.7131 76.0547 22.437C76.013 22.1558 75.9922 21.8953 75.9922 21.6558ZM76.2422 17.9761L76.2578 18.9917H74.7969C74.3854 18.9917 74.0182 19.0256 73.6953 19.0933C73.3724 19.1558 73.1016 19.2521 72.8828 19.3823C72.6641 19.5125 72.4974 19.6766 72.3828 19.8745C72.2682 20.0672 72.2109 20.2938 72.2109 20.5542C72.2109 20.8198 72.2708 21.062 72.3906 21.2808C72.5104 21.4995 72.6901 21.674 72.9297 21.8042C73.1745 21.9292 73.474 21.9917 73.8281 21.9917C74.2708 21.9917 74.6615 21.8979 75 21.7104C75.3385 21.5229 75.6068 21.2938 75.8047 21.0229C76.0078 20.7521 76.1172 20.4891 76.1328 20.2339L76.75 20.9292C76.7135 21.1479 76.6146 21.3901 76.4531 21.6558C76.2917 21.9214 76.0755 22.1766 75.8047 22.4214C75.5391 22.661 75.2214 22.8615 74.8516 23.0229C74.487 23.1792 74.0755 23.2573 73.6172 23.2573C73.0443 23.2573 72.5417 23.1453 72.1094 22.9214C71.6823 22.6974 71.349 22.3979 71.1094 22.0229C70.875 21.6427 70.7578 21.2183 70.7578 20.7495C70.7578 20.2964 70.8464 19.8979 71.0234 19.5542C71.2005 19.2052 71.4557 18.9162 71.7891 18.687C72.1224 18.4526 72.5234 18.2756 72.9922 18.1558C73.4609 18.036 73.9844 17.9761 74.5625 17.9761H76.2422ZM85.4453 18.312V19.4839H80.9766V18.312H85.4453ZM81.2812 14.6479V23.1011H79.8359V14.6479H81.2812ZM86.6172 14.6479V23.1011H85.1641V14.6479H86.6172ZM88.5625 18.9683V18.7886C88.5625 18.1792 88.651 17.6141 88.8281 17.0933C89.0052 16.5672 89.2604 16.1115 89.5938 15.7261C89.9271 15.3354 90.3307 15.0334 90.8047 14.8198C91.2786 14.6011 91.8099 14.4917 92.3984 14.4917C92.9922 14.4917 93.526 14.6011 94 14.8198C94.4792 15.0334 94.8854 15.3354 95.2188 15.7261C95.5573 16.1115 95.8151 16.5672 95.9922 17.0933C96.1693 17.6141 96.2578 18.1792 96.2578 18.7886V18.9683C96.2578 19.5776 96.1693 20.1427 95.9922 20.6636C95.8151 21.1844 95.5573 21.6401 95.2188 22.0308C94.8854 22.4162 94.4818 22.7183 94.0078 22.937C93.5391 23.1506 93.0078 23.2573 92.4141 23.2573C91.8203 23.2573 91.2865 23.1506 90.8125 22.937C90.3385 22.7183 89.9323 22.4162 89.5938 22.0308C89.2604 21.6401 89.0052 21.1844 88.8281 20.6636C88.651 20.1427 88.5625 19.5776 88.5625 18.9683ZM90.0078 18.7886V18.9683C90.0078 19.3901 90.0573 19.7886 90.1562 20.1636C90.2552 20.5334 90.4036 20.8615 90.6016 21.1479C90.8047 21.4344 91.0573 21.661 91.3594 21.8276C91.6615 21.9891 92.013 22.0698 92.4141 22.0698C92.8099 22.0698 93.1562 21.9891 93.4531 21.8276C93.7552 21.661 94.0052 21.4344 94.2031 21.1479C94.401 20.8615 94.5495 20.5334 94.6484 20.1636C94.7526 19.7886 94.8047 19.3901 94.8047 18.9683V18.7886C94.8047 18.3719 94.7526 17.9787 94.6484 17.6089C94.5495 17.2339 94.3984 16.9032 94.1953 16.6167C93.9974 16.325 93.7474 16.0959 93.4453 15.9292C93.1484 15.7625 92.7995 15.6792 92.3984 15.6792C92.0026 15.6792 91.6536 15.7625 91.3516 15.9292C91.0547 16.0959 90.8047 16.325 90.6016 16.6167C90.4036 16.9032 90.2552 17.2339 90.1562 17.6089C90.0573 17.9787 90.0078 18.3719 90.0078 18.7886ZM106.008 19.3823H103.234L103.219 18.2261H105.484C105.932 18.2261 106.305 18.1818 106.602 18.0933C106.904 18.0047 107.13 17.8719 107.281 17.6948C107.432 17.5177 107.508 17.299 107.508 17.0386C107.508 16.8354 107.464 16.6584 107.375 16.5073C107.292 16.3511 107.164 16.2235 106.992 16.1245C106.82 16.0203 106.607 15.9448 106.352 15.8979C106.102 15.8459 105.807 15.8198 105.469 15.8198H103.617V23.1011H102.172V14.6479H105.469C106.005 14.6479 106.487 14.6948 106.914 14.7886C107.346 14.8823 107.714 15.0256 108.016 15.2183C108.323 15.4058 108.557 15.6453 108.719 15.937C108.88 16.2287 108.961 16.5724 108.961 16.9683C108.961 17.2235 108.909 17.4657 108.805 17.6948C108.701 17.924 108.547 18.1271 108.344 18.3042C108.141 18.4813 107.891 18.6271 107.594 18.7417C107.297 18.8511 106.956 18.9214 106.57 18.9526L106.008 19.3823ZM106.008 23.1011H102.711L103.43 21.9292H106.008C106.409 21.9292 106.742 21.8797 107.008 21.7808C107.273 21.6766 107.471 21.5308 107.602 21.3433C107.737 21.1506 107.805 20.9214 107.805 20.6558C107.805 20.3901 107.737 20.1636 107.602 19.9761C107.471 19.7834 107.273 19.6375 107.008 19.5386C106.742 19.4344 106.409 19.3823 106.008 19.3823H103.812L103.828 18.2261H106.57L107.094 18.6636C107.557 18.7 107.951 18.8146 108.273 19.0073C108.596 19.2 108.841 19.4448 109.008 19.7417C109.174 20.0334 109.258 20.3511 109.258 20.6948C109.258 21.0907 109.182 21.4396 109.031 21.7417C108.885 22.0438 108.672 22.2964 108.391 22.4995C108.109 22.6974 107.768 22.8485 107.367 22.9526C106.966 23.0516 106.513 23.1011 106.008 23.1011Z" fill="white"/>
<path d="M175.261 17.3897C173.697 17.3897 172.328 17.1073 171.155 16.5423C169.981 15.9629 169.069 15.1662 168.417 14.1523C167.78 13.1238 167.461 11.936 167.461 10.5889C167.461 9.25623 167.693 8.03222 168.156 6.91685C168.634 5.80148 169.301 4.83821 170.155 4.02703C171.01 3.21586 172.024 2.59299 173.197 2.15843C174.37 1.70939 175.66 1.48486 177.065 1.48486C178.528 1.48486 179.824 1.7456 180.954 2.26707C182.084 2.78854 182.924 3.54178 183.474 4.52678L179.781 7.4166C179.462 6.85167 179.049 6.41711 178.542 6.11292C178.035 5.79424 177.434 5.6349 176.739 5.6349C176.13 5.6349 175.573 5.75079 175.066 5.98255C174.573 6.19983 174.146 6.51851 173.784 6.93858C173.422 7.34417 173.139 7.82943 172.936 8.39435C172.734 8.95928 172.632 9.58215 172.632 10.263C172.632 10.8569 172.763 11.3783 173.023 11.8274C173.284 12.2764 173.646 12.6241 174.11 12.8703C174.588 13.1166 175.138 13.2397 175.761 13.2397C176.355 13.2397 176.934 13.1021 177.499 12.8269C178.079 12.5516 178.629 12.1026 179.151 11.4797L182.171 14.3695C181.244 15.4994 180.208 16.2888 179.064 16.7379C177.934 17.1724 176.666 17.3897 175.261 17.3897Z" fill="white"/>
<path d="M191.025 17.3897C189.446 17.3897 188.077 17.1 186.918 16.5206C185.774 15.9412 184.883 15.1445 184.246 14.1305C183.623 13.1021 183.311 11.9215 183.311 10.5889C183.311 9.24174 183.543 8.01774 184.007 6.91685C184.485 5.80148 185.151 4.83821 186.006 4.02703C186.86 3.21586 187.874 2.59299 189.047 2.15843C190.221 1.70939 191.503 1.48486 192.893 1.48486C194.472 1.48486 195.834 1.77457 196.978 2.35398C198.137 2.93339 199.028 3.73733 199.651 4.76579C200.288 5.77976 200.607 6.95307 200.607 8.28571C200.607 9.63285 200.368 10.8641 199.89 11.9795C199.426 13.0803 198.767 14.0364 197.912 14.8476C197.058 15.6587 196.044 16.2888 194.871 16.7379C193.697 17.1724 192.415 17.3897 191.025 17.3897ZM191.459 13.2397C192.097 13.2397 192.654 13.1166 193.132 12.8703C193.625 12.6241 194.045 12.2837 194.393 11.8491C194.74 11.4145 195.001 10.922 195.175 10.3716C195.349 9.80667 195.436 9.21277 195.436 8.5899C195.436 7.99601 195.312 7.48178 195.066 7.04722C194.834 6.59818 194.494 6.25053 194.045 6.00428C193.61 5.75803 193.082 5.6349 192.459 5.6349C191.836 5.6349 191.278 5.75803 190.786 6.00428C190.293 6.25053 189.873 6.59093 189.526 7.02549C189.178 7.46005 188.917 7.95979 188.743 8.52472C188.569 9.07516 188.483 9.66182 188.483 10.2847C188.483 10.8641 188.598 11.3783 188.83 11.8274C189.076 12.2764 189.417 12.6241 189.851 12.8703C190.3 13.1166 190.836 13.2397 191.459 13.2397Z" fill="white"/>
<path d="M200.882 17.0421L203.924 1.83251H210.79C212.398 1.83251 213.781 2.09325 214.94 2.61472C216.099 3.13619 216.989 3.88218 217.612 4.8527C218.235 5.80873 218.547 6.95307 218.547 8.28571C218.547 9.63285 218.308 10.8424 217.83 11.9143C217.366 12.9862 216.707 13.906 215.852 14.6737C215.012 15.4415 214.013 16.0281 212.854 16.4337C211.695 16.8393 210.42 17.0421 209.03 17.0421H200.882ZM206.813 13.0441H209.204C210.116 13.0441 210.877 12.8486 211.485 12.4575C212.108 12.0519 212.579 11.5159 212.897 10.8496C213.216 10.1688 213.375 9.41557 213.375 8.5899C213.375 7.99601 213.252 7.49626 213.006 7.09068C212.774 6.68509 212.419 6.37365 211.941 6.15637C211.478 5.93909 210.898 5.83045 210.203 5.83045H208.248L206.813 13.0441Z" fill="white"/>
<path d="M225.438 7.48178H232.217L231.478 11.1755H224.699L225.438 7.48178ZM224.634 13.1745H232.261L231.478 17.0421H218.833L221.875 1.83251H234.238L233.456 5.70009H226.133L224.634 13.1745Z" fill="white"/>
<path d="M174.13 34.7579C172.566 34.7579 171.197 34.4754 170.024 33.9105C168.851 33.3311 167.938 32.5344 167.286 31.5204C166.649 30.492 166.33 29.3042 166.33 27.957C166.33 26.6244 166.562 25.4004 167.025 24.285C167.503 23.1696 168.17 22.2064 169.024 21.3952C169.879 20.584 170.893 19.9612 172.066 19.5266C173.24 19.0775 174.529 18.853 175.934 18.853C177.397 18.853 178.693 19.1138 179.823 19.6352C180.953 20.1567 181.793 20.9099 182.344 21.8949L178.65 24.7848C178.331 24.2198 177.918 23.7853 177.411 23.4811C176.904 23.1624 176.303 23.0031 175.608 23.0031C175 23.0031 174.442 23.1189 173.935 23.3507C173.442 23.568 173.015 23.8867 172.653 24.3067C172.291 24.7123 172.008 25.1976 171.806 25.7625C171.603 26.3274 171.501 26.9503 171.501 27.6311C171.501 28.225 171.632 28.7465 171.892 29.1955C172.153 29.6446 172.515 29.9922 172.979 30.2385C173.457 30.4847 174.007 30.6079 174.63 30.6079C175.224 30.6079 175.803 30.4702 176.368 30.195C176.948 29.9198 177.498 29.4708 178.02 28.8479L181.04 31.7377C180.113 32.8676 179.077 33.657 177.933 34.1061C176.803 34.5406 175.535 34.7579 174.13 34.7579Z" fill="white"/>
<path d="M179.788 34.4102L189.478 19.2007H194.519L198.126 34.4102H193.02L190.565 21.569H192.564L185.198 34.4102H179.788ZM184.264 31.7594L186.306 28.0657H193.303L193.868 31.7594H184.264Z" fill="white"/>
<path d="M204.181 31.2814L204.942 25.5235L211.721 19.2007H217.609L209.809 26.284L206.332 29.2824L204.181 31.2814ZM198.945 34.4102L201.987 19.2007H207.027L203.985 34.4102H198.945ZM209.222 34.4102L205.55 28.5002L209.352 25.0672L214.936 34.4102H209.222Z" fill="white"/>
<path d="M222.164 24.8499H228.943L228.205 28.5437H221.425L222.164 24.8499ZM221.36 30.5427H228.987L228.205 34.4102H215.559L218.601 19.2007H230.964L230.182 23.0683H222.859L221.36 30.5427Z" fill="white"/>
<path d="M159.542 0.0976562C162.861 0.0976856 165.465 2.94683 165.167 6.25293L162.938 30.9639C162.676 33.8745 160.236 36.1043 157.313 36.1045H132.648C129.329 36.1043 126.725 33.2544 127.023 29.9482L129.252 5.23828C129.514 2.32744 131.955 0.0976562 134.878 0.0976562H159.542ZM146.748 13.7939L153.147 20.1934L146.748 26.5918L148.576 28.4199L155.889 21.1064C156.131 20.8641 156.267 20.536 156.267 20.1934C156.267 19.8506 156.131 19.5217 155.889 19.2793L148.576 11.9658L146.748 13.7939ZM136.166 14.8945C135.924 15.1369 135.788 15.4658 135.788 15.8086C135.788 16.1513 135.924 16.4802 136.166 16.7227L143.479 24.0361L145.307 22.208L138.908 15.8086L145.307 9.40918L143.479 7.58105L136.166 14.8945Z" fill="white"/>
</svg>
