<svg width="25" height="24" viewBox="0 0 25 24" fill="currentColor" xmlns="http://www.w3.org/2000/svg">
<path d="M12.083 12C10.983 12 10.083 11.1 10.083 10C10.083 8.9 10.983 8 12.083 8C13.183 8 14.083 8.9 14.083 10C14.083 11.1 13.183 12 12.083 12ZM18.083 10.2C18.083 6.57 15.433 4 12.083 4C8.73301 4 6.08301 6.57 6.08301 10.2C6.08301 12.54 8.03301 15.64 12.083 19.34C16.133 15.64 18.083 12.54 18.083 10.2ZM12.083 2C16.283 2 20.083 5.22 20.083 10.2C20.083 13.52 17.413 17.45 12.083 22C6.75301 17.45 4.08301 13.52 4.08301 10.2C4.08301 5.22 7.88301 2 12.083 2Z" fill="#0077FF"/>
</svg>
