<svg width="44" height="44" viewBox="0 0 44 44" fill="none" xmlns="http://www.w3.org/2000/svg">
<path d="M20.9989 3.01891C20.8611 3.10594 20.4187 3.49033 20.0198 3.87472C18.5185 5.32524 16.7851 6.53643 14.8705 7.47927C12.8542 8.47289 10.9613 8.99508 9.14813 9.07485C8.6622 9.09661 8.15452 9.14738 8.01672 9.1909C7.64683 9.29968 7.31321 9.57528 7.13915 9.92341C6.98684 10.2208 6.97959 10.2788 7.02311 12.6939C7.1464 19.7797 8.2343 25.1612 10.4536 29.6288C12.6004 33.9441 15.8205 37.1788 20.2446 39.4706C21.1947 39.9638 21.2963 40.0001 21.7242 40.0001C22.1521 40.0001 22.2536 39.9638 23.2037 39.4706C30.4491 35.7138 34.5178 29.3895 35.9031 19.7435C36.2585 17.2123 36.447 14.5723 36.447 11.9106C36.447 10.3296 36.4325 10.1627 36.302 9.90165C36.1352 9.57528 35.7943 9.29968 35.4317 9.1909C35.2939 9.14738 34.7862 9.09661 34.3002 9.07485C32.4943 9.00233 30.5942 8.46563 28.5779 7.47927C26.656 6.52918 24.9516 5.33975 23.3923 3.83846C22.9716 3.43231 22.522 3.04792 22.3987 2.98265C22.0578 2.80858 21.318 2.83034 20.9989 3.01891ZM22.2754 6.89181C25.4013 9.62605 29.4918 11.548 33.06 11.9759L33.4734 12.0194V12.868C33.4734 15.3556 33.0745 19.214 32.5669 21.6582C31.1163 28.6207 27.8309 33.4437 22.4712 36.4753L21.7242 36.8959L20.9844 36.4753C14.9937 33.0883 11.614 27.5255 10.4536 19.1488C10.178 17.118 9.97493 14.5143 9.97493 12.868V12.0267L10.6059 11.9396C13.1298 11.5915 15.719 10.6197 18.1704 9.10386C19.0915 8.53091 20.6798 7.35598 21.289 6.79028C21.5066 6.59446 21.6952 6.42764 21.7097 6.42039C21.7242 6.42039 21.9708 6.63072 22.2754 6.89181Z" fill="#0077FF"/>
<path d="M26.5834 16.5815C26.4819 16.6177 25.0169 18.0393 23.3198 19.7291L20.2374 22.8115L18.7143 21.2812C17.873 20.4399 17.068 19.6929 16.9229 19.6131C16.2194 19.2504 15.1896 19.6348 14.914 20.3673C14.7834 20.701 14.8197 21.3319 14.972 21.6366C15.1823 22.0355 19.3018 26.1187 19.6354 26.2565C19.9835 26.3943 20.4912 26.3943 20.8394 26.2565C21.173 26.1187 28.266 19.0619 28.4764 18.663C28.6287 18.3584 28.6649 17.7274 28.5344 17.3938C28.4329 17.1182 28.0485 16.7265 27.7656 16.6032C27.4973 16.4872 26.8518 16.4799 26.5834 16.5815Z" fill="#0077FF"/>
</svg>
