<svg width="44" height="44" viewBox="0 0 44 44" fill="none" xmlns="http://www.w3.org/2000/svg">
<path d="M0.4125 7.44219C0.283594 7.51094 0.1375 7.63984 0.0859375 7.73438C0.0257813 7.8375 0 11.0859 0 17.4453V27.0016L0.257812 27.2508L0.515625 27.5086L2.55234 27.4828L4.59766 27.457L5.15625 27.1906C5.46563 27.0445 5.89531 26.7609 6.11875 26.5633L6.53125 26.2023L8.27578 27.5172C9.23828 28.2477 10.5617 29.2875 11.2234 29.8289C13.6813 31.857 17.6859 34.9508 18.743 35.6297C19.8773 36.3688 20.8055 36.6437 22.1289 36.6523C23.1172 36.6523 23.1945 36.6352 23.693 36.3945C24.1313 36.1711 24.2602 36.1453 24.5008 36.2055C25.0078 36.343 26.125 36.2312 26.5547 36.0164C27.1305 35.7242 27.6117 35.2945 27.9211 34.8219L28.1961 34.3922L28.9867 34.3578C29.6141 34.332 29.8805 34.2719 30.2844 34.0914C30.9461 33.7906 31.4789 33.3438 31.7539 32.8797C31.9688 32.5187 31.9859 32.5016 32.4672 32.4672C33.1289 32.4242 33.7133 32.1234 34.2977 31.5391C34.8477 30.9977 35.1484 30.3187 35.1742 29.5883L35.1914 29.1414L36.2914 28.5312C36.893 28.2047 37.4 27.9297 37.4086 27.9297C37.4258 27.9297 37.6406 28.1187 37.8898 28.3594C38.4141 28.8492 39.0758 29.1844 39.7547 29.3133C40.0125 29.3648 40.9578 29.3906 41.8516 29.3734L43.4758 29.3477L43.7336 29.0984L44 28.8406V19.25V9.65937L43.7594 9.41875C43.2867 8.97187 43.2609 8.98047 39.0242 10.5273C36.8844 11.3094 34.9336 12.0484 34.7102 12.1773C34.1516 12.4781 33.4727 13.2086 33.2062 13.793C33.0859 14.0508 32.957 14.2656 32.9227 14.2656C32.8883 14.2656 32.4758 14.1453 32.0117 13.9992C30.7398 13.6039 28.9867 12.8992 27.4484 12.1773C25.3773 11.1977 24.6727 11 23.2203 11C21.7164 11 20.4617 11.3953 19.0266 12.332L18.2703 12.8219L17.0156 12.8992C16.3281 12.9422 14.8672 13.0539 13.7586 13.1484C10.9484 13.3891 11.2063 13.4234 11.0859 12.8219C10.8711 11.8078 10.2094 10.8711 9.35859 10.3727C8.82578 10.0633 1.21172 7.30469 0.902344 7.30469C0.75625 7.31328 0.541406 7.36484 0.4125 7.44219ZM5.41406 10.9141C6.99531 11.4898 8.41328 12.057 8.55937 12.1687C8.92031 12.4352 9.2125 13.0453 9.2125 13.5437C9.2125 13.8531 8.76562 15.1336 7.21016 19.2672C6.03281 22.4211 5.12188 24.7242 4.97578 24.9133C4.58047 25.4633 4.15938 25.6094 2.93906 25.6094H1.89062V17.6172V9.63359L2.21719 9.74531C2.38906 9.81406 3.83281 10.3383 5.41406 10.9141ZM42.1094 19.5164V27.5258L41.0609 27.4828C39.6859 27.4312 39.2133 27.1992 38.818 26.4172C38.7406 26.2711 37.8039 23.8133 36.7383 20.9602C34.6672 15.443 34.6242 15.3141 34.925 14.6781C35.2516 13.9906 35.432 13.8961 38.7664 12.6758C40.4852 12.0484 41.9461 11.5242 42.0063 11.5242C42.0836 11.5156 42.1094 13.1656 42.1094 19.5164ZM24.4578 13.0625C24.8273 13.157 25.8414 13.5695 26.7094 13.9734C27.5773 14.3773 28.7203 14.8758 29.2445 15.0734C30.1383 15.4172 32.407 16.182 32.768 16.2508C32.8883 16.2766 33.3523 17.4281 34.7617 21.1836C35.7672 23.8734 36.575 26.1078 36.5578 26.1422C36.5406 26.168 36.0594 26.4516 35.4922 26.7609L34.4523 27.3281L33.4039 26.2367C32.218 25.0078 31.032 23.9594 27.4141 20.9516C26.0219 19.8 24.5438 18.5367 24.1313 18.15C23.1516 17.2305 23.0484 17.2133 21.9398 17.7289C21.4758 17.9438 20.8656 18.1586 20.582 18.2188C20.2984 18.2703 19.9719 18.3305 19.8602 18.3562C19.7484 18.382 19.4391 18.6313 19.1812 18.9148C18.107 20.075 16.1648 20.5047 15.7266 19.6883C15.3398 18.9664 16.4484 17.0758 18.1844 15.4945C20.668 13.2344 22.4383 12.5469 24.4578 13.0625ZM15.7781 15.1422C14.2227 17.0414 13.75 18.0211 13.75 19.3359C13.75 19.9031 13.7844 20.075 14.0164 20.5219C14.5148 21.5273 15.3656 22 16.6547 22C18.0039 22 19.2672 21.5187 20.2211 20.6336C20.6422 20.2383 20.8313 20.1266 21.132 20.075C21.3383 20.0406 21.7852 19.9117 22.1289 19.7742L22.7477 19.5336L23.4266 20.1352C23.7961 20.4617 25.4633 21.8711 27.1305 23.2547C30.2586 25.8672 32.2352 27.6891 32.8883 28.5656C33.3523 29.1844 33.3953 29.6484 33.0344 30.0781C32.768 30.3875 32.407 30.5938 32.1234 30.5938C31.9773 30.5938 31.1781 29.8375 29.0727 27.7148C27.3195 25.9531 26.1422 24.8187 26.0047 24.7844C25.2055 24.5867 24.5523 25.3172 24.8617 26.0477C24.9305 26.2195 26.0906 27.4656 27.5945 28.9953C30.1813 31.625 30.1984 31.6422 30.0695 31.8656C29.9062 32.1492 29.382 32.4156 28.8836 32.4672C28.4969 32.5016 28.4453 32.4758 27.9641 32.0805C27.6891 31.8398 26.5633 30.7398 25.4633 29.6227C24.2516 28.3852 23.3836 27.5687 23.2547 27.5344C22.4555 27.3367 21.8023 28.0672 22.1203 28.8148C22.1891 28.9953 23.0828 29.975 24.3633 31.2641L26.4773 33.4211L26.3484 33.6703C26.0477 34.2461 25.2914 34.5211 24.7414 34.2461C24.5781 34.1688 23.4008 33.043 22.1117 31.7539C20.8313 30.4648 19.6969 29.382 19.5938 29.3477C19.0008 29.1586 18.3906 29.6484 18.3906 30.3016C18.3906 30.757 18.4164 30.7914 20.7883 33.1977C22.275 34.693 22.3695 34.8047 22.1289 34.8047C21.7852 34.8047 20.9773 34.5898 20.4273 34.3578C19.757 34.0656 15.6922 30.9891 12.5039 28.368C11.8422 27.818 10.4414 26.7266 9.39297 25.9359C8.34453 25.1367 7.45938 24.4492 7.43359 24.4062C7.40781 24.3547 8.13828 22.2922 9.06641 19.8172L10.7594 15.3141L11.5844 15.2539C12.2203 15.2023 14.8758 14.9703 15.8898 14.8758C15.9586 14.8672 15.9242 14.9703 15.7781 15.1422Z" fill="#0077FF"/>
</svg>
