<svg width="44" height="44" viewBox="0 0 44 44" fill="none" xmlns="http://www.w3.org/2000/svg">
<path d="M20.7795 5.44479C20.1633 5.58006 11.0023 9.10467 10.2658 9.48795C9.10094 10.1042 7.93609 11.4269 7.4476 12.6894C7.00421 13.8467 6.97415 14.2375 7.01172 18.6339C7.04178 22.1735 7.05682 22.6846 7.1996 23.5714C7.53779 25.6906 8.04882 27.2989 8.94312 29.095C10.9872 33.1757 14.85 36.535 19.7349 38.4965C20.7043 38.8873 21.1703 39 21.8542 39C22.7034 39 23.1468 38.5867 23.1468 37.7976C23.1468 37.0385 22.8086 36.7079 21.8692 36.5425C21.2229 36.4298 20.2685 36.0616 18.9909 35.4228C15.331 33.5816 12.603 30.9287 11.0399 27.6897C10.2958 26.1491 9.92009 24.9091 9.64203 23.143C9.52179 22.3915 9.50676 21.7602 9.50676 18.2957V14.3127L9.68712 13.8242C9.78482 13.5536 9.9727 13.1629 10.108 12.96C10.3935 12.5166 11.1 11.8477 11.5133 11.6373C11.6786 11.5546 13.9257 10.6753 16.5109 9.68334C19.9829 8.35316 21.3356 7.86467 21.6888 7.81958C22.6508 7.70685 22.8462 7.76697 27.7911 9.6608C30.3388 10.6378 32.5858 11.517 32.7737 11.6147C33.5402 11.998 34.2842 12.8623 34.6525 13.7866C34.8178 14.2225 34.8253 14.3352 34.8704 16.7701C34.908 19.1825 34.9155 19.3103 35.0658 19.5132C35.5994 20.2271 36.5688 20.2572 37.0949 19.5658L37.3129 19.2877L37.3354 16.9655C37.3579 14.3728 37.2978 13.734 36.8995 12.712C36.411 11.4344 35.2462 10.1042 34.0738 9.48795C33.3073 9.08213 24.1688 5.57255 23.5225 5.43727C22.9138 5.30952 21.3807 5.30952 20.7795 5.44479Z" fill="#0077FF"/>
<path d="M24.6942 17.6269C21.0418 18.2883 18.2612 21.0989 17.6149 24.7964C17.4571 25.7358 17.5022 27.4192 17.7276 28.2984C18.1335 29.9443 18.9376 31.3421 20.125 32.4994C20.869 33.2284 21.4401 33.6267 22.357 34.0776C24.852 35.3101 27.7153 35.2951 30.2254 34.04C32.6377 32.8376 34.3512 30.5004 34.8772 27.7273C35.0125 27.0209 34.99 25.2623 34.8397 24.5634C34.4564 22.7748 33.7575 21.4446 32.5175 20.1595C30.8115 18.3935 28.6547 17.4916 26.1597 17.5142C25.6787 17.5142 25.0174 17.5668 24.6942 17.6269ZM27.4898 20.1069C29.5264 20.5278 31.3226 22.0308 32.0741 23.9697C32.525 25.1195 32.6227 26.6151 32.3221 27.7649C31.7735 29.8691 30.1352 31.5901 28.0835 32.2289C25.9117 32.8977 23.6195 32.3566 21.9662 30.7785C21.3274 30.1772 20.9216 29.6211 20.5533 28.832C20.1776 28.0504 20.0498 27.5018 20.0123 26.5174C19.9296 24.6611 20.5233 23.1205 21.8309 21.8279C22.7102 20.9486 23.7849 20.3624 24.9873 20.0994C25.6186 19.9566 26.7984 19.9641 27.4898 20.1069Z" fill="#0077FF"/>
<path d="M33.6079 33.1157C33.4726 33.1833 33.2923 33.3411 33.2021 33.4614C32.9841 33.762 32.9315 34.4534 33.0894 34.7615C33.2547 35.0696 35.3965 37.1738 35.6445 37.264C36.366 37.5421 37.1776 37.0762 37.3204 36.3096C37.4256 35.7685 37.2603 35.5055 36.0804 34.3106C35.4792 33.7018 34.878 33.1457 34.7427 33.0931C34.4195 32.9503 33.916 32.9654 33.6079 33.1157Z" fill="#0077FF"/>
</svg>
