<svg width="44" height="44" viewBox="0 0 44 44" fill="none" xmlns="http://www.w3.org/2000/svg">
<path d="M24.3254 6.42223C24.1635 6.45307 23.9322 6.56873 23.8243 6.68438C23.6238 6.87715 23.6161 6.92341 23.5929 7.90263C23.5698 8.74307 23.5852 8.96667 23.7009 9.21341C23.9245 9.71458 24.1173 9.76856 25.6748 9.7994C27.2246 9.83024 27.1243 9.77627 27.1243 10.5704C27.1243 11.0176 27.0395 11.2335 26.8236 11.3492C26.7465 11.3955 26.1991 11.5342 25.6131 11.6653C22.66 12.3207 20.4702 13.5081 18.558 15.4897C13.8392 20.4012 13.5308 27.8804 17.841 33.1774C18.2805 33.7172 19.3214 34.7504 19.8765 35.1899C22.3747 37.1869 25.8521 38.2278 29.0751 37.9579C33.3235 37.6032 36.8086 35.5445 39.1912 31.9823C41.2498 28.9059 41.9052 25.0121 40.9723 21.4576C39.6461 16.4072 35.9374 12.8682 30.7328 11.6962C29.7073 11.4649 29.5146 11.38 29.3835 11.1256C29.2832 10.9251 29.2524 10.2852 29.3295 9.99987C29.3758 9.83795 29.422 9.83024 30.6172 9.7994C31.4267 9.78398 31.9279 9.73772 32.0359 9.67603C32.3751 9.48327 32.4445 9.21341 32.4445 8.04142C32.4445 6.8463 32.3674 6.55331 32.0127 6.42223C31.7814 6.3297 24.7726 6.3297 24.3254 6.42223ZM30.3396 14.125C34.4647 15.0194 37.5488 18.0264 38.5743 22.1438C38.8211 23.1307 38.9521 24.4724 38.8827 25.3436C38.6668 28.1579 37.6491 30.3863 35.6829 32.3293C33.5702 34.4265 31.0566 35.4906 28.2038 35.4983C26.415 35.506 24.9037 35.1513 23.3308 34.3648C20.6707 33.0386 18.7585 30.8026 17.8255 27.9498C17.4709 26.8626 17.3244 25.8988 17.3244 24.5957C17.3321 22.8223 17.5942 21.6503 18.3267 20.1005C19.8842 16.839 22.8759 14.603 26.4689 14.017C27.425 13.8628 29.3835 13.9168 30.3396 14.125Z" fill="#0077FF"/>
<path d="M27.6883 17.4943C27.2256 17.7256 27.2025 17.8798 27.2025 20.3934V22.6603L26.9404 22.7913C26.5471 22.9764 26.0768 23.6164 25.9611 24.1098C25.7067 25.2664 26.2156 26.3227 27.2719 26.7931C27.7731 27.0244 28.7369 26.9627 29.2226 26.6774C29.9474 26.2533 30.3175 25.5825 30.3098 24.7267C30.3021 23.8631 29.8318 23.0535 29.1533 22.7297L28.8757 22.5986L28.9296 20.4165C28.9913 18.1034 28.9682 17.8952 28.6212 17.5868C28.3976 17.394 27.9736 17.3478 27.6883 17.4943Z" fill="#0077FF"/>
<path d="M17.8184 11.4648C17.0474 11.7115 16.5 12.1819 16.1299 12.8989C15.9294 13.2768 15.9062 13.4001 15.9062 14.0555C15.9062 14.6569 15.9371 14.8574 16.0913 15.1889C16.2918 15.6439 16.4074 15.6901 16.6002 15.3894C17.0011 14.7803 18.7745 13.1919 19.8617 12.4749C20.1701 12.2667 20.4091 12.0662 20.3937 12.02C20.386 11.9737 20.1393 11.8195 19.854 11.673C19.4145 11.4494 19.2294 11.4031 18.736 11.38C18.3736 11.3646 18.0189 11.4031 17.8184 11.4648Z" fill="#0077FF"/>
<path d="M36.4622 11.5034C36.2386 11.5882 35.9301 11.7501 35.7836 11.8581L35.5215 12.0663L36.1615 12.498C36.5161 12.7293 37.025 13.1072 37.3026 13.3231C37.8115 13.7317 39.3613 15.2661 39.4846 15.482C39.608 15.7056 39.7622 15.5976 39.9164 15.1736C40.2248 14.3408 40.2017 13.5312 39.8393 12.8142C39.6311 12.3901 39.0143 11.8195 38.5517 11.6036C37.9657 11.3415 37.0327 11.2952 36.4622 11.5034Z" fill="#0077FF"/>
<path d="M5.69707 17.9417C5.11108 18.2655 5.18818 19.2602 5.82044 19.5223C5.98236 19.584 7.09266 19.6071 9.86842 19.5917L13.7005 19.5686L13.9318 19.345C14.3482 18.9518 14.3173 18.3349 13.8778 17.9879C13.6928 17.8414 13.554 17.8337 9.7836 17.8337C6.69172 17.8414 5.84357 17.8569 5.69707 17.9417Z" fill="#0077FF"/>
<path d="M3.38473 23.9558C3.2845 24.0097 3.15342 24.1408 3.09945 24.241C2.96066 24.4955 2.96837 25.0121 3.11487 25.2203C3.40015 25.6289 3.34618 25.6212 7.96473 25.6212C12.5833 25.6212 12.5293 25.6289 12.8146 25.2203C12.884 25.1277 12.938 24.8964 12.938 24.7114C12.938 24.4261 12.8917 24.3259 12.6758 24.11L12.4137 23.8478H7.98786C4.4719 23.8555 3.53123 23.8709 3.38473 23.9558Z" fill="#0077FF"/>
<path d="M5.79731 30.1241C5.58913 30.3323 5.53516 30.4479 5.53516 30.7024C5.53516 31.1033 5.65081 31.3501 5.92068 31.5043C6.11344 31.6199 6.52209 31.6353 9.79903 31.6353C13.369 31.6353 13.4615 31.6276 13.6542 31.4811C13.8856 31.2961 14.0321 30.872 13.9627 30.5482C13.9395 30.4248 13.8007 30.2166 13.6542 30.0933L13.3921 29.8619H9.72963H6.05947L5.79731 30.1241Z" fill="#0077FF"/>
</svg>
