<svg width="47" height="48" viewBox="0 0 47 48" fill="none" xmlns="http://www.w3.org/2000/svg">
<circle cx="23.0489" cy="24" r="23.0489" fill="#0077FF"/>
<path d="M8.86224 16.102C8.34293 16.3398 8.01758 16.8529 8.01758 17.4222C8.01758 17.8164 8.16148 17.9853 8.50561 17.9853C8.83096 17.9853 8.99989 17.8477 9.04994 17.5474C9.07497 17.4097 9.1438 17.2345 9.20636 17.1594L9.31898 17.0155H23.0276H36.7299L36.8738 17.1594L37.0177 17.3033L37.0364 20.7571C37.0552 24.436 37.0239 24.9804 36.7799 25.5185C36.5609 25.9815 36.1104 26.457 35.66 26.676C35.4472 26.7823 35.2408 26.8699 35.2032 26.8699C35.1469 26.8699 35.1156 26.5696 35.0968 25.7249C35.0593 24.4861 35.0093 24.2421 34.6714 23.7853C34.4399 23.4663 34.0019 23.1534 33.6578 23.0596C33.4576 23.0033 30.7484 22.9907 22.9087 23.0033L12.4286 23.022L12.1158 23.1784C11.6903 23.3849 11.3086 23.7979 11.1397 24.2296C11.0208 24.5362 10.9958 24.7426 10.9708 25.7249C10.952 26.5696 10.9207 26.8699 10.8644 26.8699C10.8269 26.8699 10.6204 26.7823 10.4139 26.6822C9.95092 26.4507 9.50669 25.9877 9.28144 25.506L9.11251 25.1493L9.08123 22.2399C9.0562 20.1251 9.03117 19.293 8.97486 19.1991C8.85598 18.9864 8.55566 18.8926 8.33042 18.9864C8.22405 19.0302 8.11143 19.1178 8.08015 19.1804C8.04261 19.2429 8.01758 20.4567 8.01758 22.1961C8.01758 25.4058 8.01758 25.3871 8.43678 26.1942C8.84347 26.97 9.66936 27.627 10.5766 27.896C10.8832 27.9836 12.0219 27.9961 21.8513 27.9961C32.4815 27.9961 32.7818 27.9899 32.9258 27.8773C33.1322 27.7083 33.1322 27.2829 32.9258 27.1139C32.7818 27.0013 32.494 26.9951 22.4019 26.9951H12.0219V26.0378C12.0282 24.6863 12.1158 24.4048 12.6163 24.1295C12.7852 24.0294 13.6362 24.0231 22.7523 24.0043C28.2269 23.9918 32.8444 24.0043 33.0259 24.0231C33.4138 24.0669 33.7078 24.2546 33.883 24.5549C34.0019 24.7551 34.0144 24.9053 34.0457 26.2943C34.077 27.7083 34.0833 27.8272 34.1959 27.9086C34.3961 28.0525 35.0906 28.0212 35.6537 27.8397C36.7236 27.5019 37.512 26.7135 37.9061 25.5873L38.0813 25.0868V21.145C38.0813 17.9666 38.0626 17.1532 37.9937 16.9592C37.8811 16.6401 37.5182 16.2397 37.2054 16.102C36.9676 15.9894 36.367 15.9832 23.0338 15.9832C9.6068 15.9832 9.10625 15.9894 8.86224 16.102Z" fill="white"/>
<path d="M26.162 18.1229C25.9868 18.3169 25.9931 18.6735 26.1808 18.8487C26.3122 18.9738 26.3935 18.9863 27.0442 18.9863C27.72 18.9863 27.7763 18.9738 27.9014 18.8424C28.0828 18.6547 28.0828 18.3043 27.9139 18.1229C27.795 17.9978 27.7262 17.9852 27.038 17.9852C26.3497 17.9852 26.2809 17.9978 26.162 18.1229Z" fill="white"/>
<path d="M29.1787 18.1292C28.991 18.3294 28.9973 18.6735 29.185 18.8487C29.3289 18.9863 29.3414 18.9863 32.0506 18.9863H34.7785L34.9099 18.8424C35.0976 18.6422 35.0913 18.2981 34.9036 18.1229C34.7597 17.9852 34.7472 17.9852 32.038 17.9852H29.3101L29.1787 18.1292Z" fill="white"/>
<path d="M13.1412 25.1117C12.9347 25.2806 12.9347 25.7061 13.1412 25.875C13.2851 25.9876 13.5604 25.9939 23.0394 25.9939C32.7123 25.9939 32.7937 25.9939 32.9188 25.8688C33.0877 25.6998 33.0877 25.3119 32.9188 25.1305L32.7874 24.9928H23.0394C13.5604 24.9928 13.2851 24.9991 13.1412 25.1117Z" fill="white"/>
<path d="M14.7805 29.5416C14.5302 29.673 14.1798 30.1485 14.086 30.4864C13.9921 30.8242 14.0109 31.5563 14.1173 31.9129C14.1673 32.0818 14.3613 32.476 14.549 32.7826C14.9557 33.4583 15.0558 33.7774 14.9619 34.1153C14.9307 34.2529 14.8431 34.4093 14.768 34.4782C14.3863 34.8223 14.4051 35.3103 14.8118 35.4792C15.0996 35.5981 15.3874 35.4792 15.6439 35.1289C15.963 34.6846 16.0444 34.3906 16.0131 33.7712C15.9818 33.158 15.8629 32.8326 15.4187 32.1444C14.9682 31.4499 14.9432 30.9056 15.3436 30.4488C15.5688 30.1923 15.5939 29.8169 15.3999 29.6229C15.3311 29.5541 15.2498 29.4978 15.2185 29.4978C15.1872 29.4978 15.1246 29.4853 15.0746 29.4665C15.0308 29.4477 14.8994 29.4853 14.7805 29.5416Z" fill="white"/>
<path d="M18.8033 29.5229C18.5593 29.6292 18.2464 30.0484 18.1151 30.4551C18.04 30.6804 18.0212 30.9056 18.04 31.306C18.0713 31.9067 18.2026 32.2508 18.6344 32.9265C19.0974 33.6336 19.1099 34.1028 18.6844 34.5721C18.4029 34.8849 18.3904 35.1289 18.6469 35.3854C18.747 35.4856 18.8971 35.5669 18.9785 35.5669C19.21 35.5669 19.5166 35.3417 19.7168 35.0226C19.9921 34.5908 20.0484 34.3593 20.0171 33.7587C19.9858 33.1643 19.8669 32.8264 19.4227 32.1444C18.9847 31.4687 18.9472 30.9431 19.3101 30.5114C19.6542 30.0985 19.6292 29.6855 19.2413 29.5229C18.9973 29.4228 19.0411 29.4228 18.8033 29.5229Z" fill="white"/>
<path d="M22.8092 29.5227C22.5651 29.6291 22.2523 30.0483 22.1209 30.455C22.0458 30.6802 22.0271 30.9054 22.0458 31.3059C22.0771 31.9065 22.2085 32.2507 22.6402 32.9201C23.0657 33.5771 23.122 34.1715 22.7779 34.4781C22.3962 34.8222 22.415 35.3102 22.8217 35.4791C23.2158 35.6418 23.6038 35.3603 23.9041 34.6908C24.0605 34.3467 24.0793 33.6084 23.9416 33.1516C23.8916 32.9827 23.6976 32.5885 23.5099 32.2819C23.1032 31.5999 23.0031 31.2871 23.097 30.9367C23.1345 30.8053 23.2346 30.6114 23.316 30.5113C23.6601 30.0983 23.6351 29.6854 23.2471 29.5227C23.0031 29.4226 23.0469 29.4226 22.8092 29.5227Z" fill="white"/>
<path d="M26.7942 29.5478C26.5439 29.673 26.1935 30.1485 26.0997 30.4864C26.0058 30.8242 26.0246 31.5563 26.131 31.9129C26.181 32.0818 26.375 32.476 26.5627 32.7826C26.9694 33.4583 27.0695 33.7774 26.9756 34.1153C26.9443 34.2529 26.8567 34.4093 26.7817 34.4782C26.4 34.8223 26.4188 35.3103 26.8255 35.4792C27.1133 35.5981 27.4011 35.4792 27.6576 35.1289C27.9767 34.6846 28.058 34.3906 28.0268 33.7712C27.9955 33.158 27.8766 32.8326 27.4324 32.1444C26.9944 31.4687 26.9568 30.9431 27.3197 30.5114C27.6639 30.0984 27.6388 29.6855 27.2509 29.5228C26.9944 29.4164 27.0507 29.4164 26.7942 29.5478Z" fill="white"/>
<path d="M30.7981 29.5416C30.5478 29.673 30.1974 30.1485 30.1036 30.4864C30.0097 30.8243 30.0285 31.5563 30.1349 31.9129C30.1849 32.0881 30.3726 32.4635 30.5478 32.7576C31.1109 33.6774 31.1485 34.0465 30.723 34.5408C30.4164 34.8912 30.4039 35.1227 30.6604 35.3854C30.7605 35.4856 30.9107 35.5669 30.992 35.5669C31.2235 35.5669 31.5301 35.3417 31.7303 35.0226C32.0056 34.5908 32.0619 34.3593 32.0307 33.7587C31.9994 33.1643 31.8805 32.8264 31.4363 32.1444C30.9858 31.4499 30.9608 30.9619 31.3549 30.4676C31.5864 30.1798 31.6115 29.8169 31.4175 29.623C31.3487 29.5541 31.2673 29.4978 31.236 29.4978C31.2048 29.4978 31.1422 29.4853 31.0921 29.4666C31.0483 29.4478 30.917 29.4853 30.7981 29.5416Z" fill="white"/>
</svg>
