<svg width="24" height="24" viewBox="0 0 24 24" fill="none" xmlns="http://www.w3.org/2000/svg">
<path d="M10.4195 4.05171C8.45281 4.31084 6.70867 5.19454 5.32997 6.63968C4.13399 7.89546 3.34996 9.47349 3.07422 11.1944C2.99117 11.7093 2.97456 12.9784 3.041 13.5365C3.36325 16.1942 4.90806 18.5231 7.24686 19.8918C8.11727 20.4001 9.13053 20.7556 10.2202 20.935C10.7451 21.0213 12.2534 21.0213 12.7783 20.935C13.5158 20.8121 14.1636 20.6293 14.7782 20.3768C15.2101 20.1975 15.7516 19.9151 15.7516 19.8652C15.7516 19.8353 14.745 18.0679 14.7051 18.0248C14.6985 18.0181 14.559 18.0812 14.3995 18.1643C12.9942 18.8819 11.3464 19.0513 9.81822 18.636C8.24684 18.2042 6.8781 17.1543 6.01434 15.7125C5.63229 15.0713 5.32001 14.1876 5.20705 13.4136C5.13729 12.9285 5.13729 12.0847 5.20705 11.5997C5.61236 8.82567 7.8216 6.61643 10.6023 6.21444C11.0973 6.14136 11.9411 6.14136 12.3995 6.21112C14.343 6.51012 15.9709 7.60975 16.9841 9.30074C17.3662 9.94192 17.6785 10.8289 17.7881 11.593C17.8579 12.0814 17.8944 13.2143 17.8512 13.5531C17.7914 14.0083 17.6154 14.2973 17.2831 14.4933C17.1469 14.573 17.0971 14.583 16.8147 14.583C16.5489 14.583 16.4759 14.5697 16.3563 14.5066C16.1769 14.4102 15.9742 14.2076 15.8878 14.0415C15.7649 13.799 15.7516 13.5531 15.7516 11.4003V9.31735H15.0407H14.3297L14.0473 9.10473C13.2832 8.53 12.4593 8.25426 11.5026 8.25426C10.5989 8.25426 9.85145 8.47684 9.09399 8.97517C8.79167 9.1745 8.16711 9.79906 7.96778 10.1014C7.47277 10.8555 7.24686 11.6063 7.24686 12.5066C7.24686 13.4103 7.47277 14.1577 7.96778 14.9086C8.17043 15.2175 8.79167 15.8388 9.09067 16.0348C9.60228 16.3703 10.1936 16.6095 10.7484 16.7092C11.3763 16.8188 12.2368 16.7557 12.8281 16.5597C13.1736 16.4467 13.6886 16.1776 13.9743 15.965C14.1204 15.8554 14.2733 15.7391 14.3164 15.7092C14.3895 15.656 14.3962 15.656 14.5822 15.8454C15.0174 16.2839 15.5689 16.5796 16.1935 16.7125C16.4958 16.7756 17.1503 16.7723 17.4725 16.7059C18.4293 16.5098 19.21 15.8919 19.6552 14.9816C19.9641 14.3504 19.9807 14.2574 19.9974 12.995C20.0106 11.7957 19.9774 11.3738 19.818 10.6495C19.0439 7.16126 16.1071 4.49024 12.5623 4.05171C12.0574 3.99191 10.8979 3.99191 10.4195 4.05171ZM12.0109 10.4668C12.6454 10.6196 13.2168 11.1313 13.466 11.7591C13.5557 11.9884 13.5723 12.0781 13.5856 12.407C13.5955 12.696 13.5856 12.8422 13.5424 13.005C13.1636 14.4634 11.4394 15.088 10.2534 14.1943C9.85809 13.8953 9.57571 13.48 9.45611 13.0216C9.39299 12.7691 9.39299 12.2442 9.45611 11.9917C9.74846 10.8754 10.888 10.1944 12.0109 10.4668Z" fill="#0077FF"/>
</svg>
