<svg width="33" height="32" viewBox="0 0 33 32" fill="none" xmlns="http://www.w3.org/2000/svg">
<path d="M16.5784 0H16.5055C7.68911 0 0.541992 7.14713 0.541992 15.9636V16.0364C0.541992 24.8529 7.68911 32 16.5055 32H16.5784C25.3949 32 32.542 24.8529 32.542 16.0364V15.9636C32.542 7.14713 25.3949 0 16.5784 0Z" fill="#00B0F2"/>
<path d="M6.60288 15.4545C6.64772 15.432 6.69259 15.4107 6.73631 15.3906C7.49643 15.0385 8.26663 14.7089 9.03572 14.3793C9.0772 14.3793 9.14669 14.3311 9.18593 14.3154C9.24535 14.2896 9.30478 14.265 9.3642 14.2392L9.70614 14.0923C9.93485 13.9948 10.1624 13.8972 10.3911 13.7997C10.8474 13.6046 11.3037 13.4095 11.76 13.2133C12.6726 12.8232 13.5863 12.4319 14.4989 12.0418C15.4115 11.6516 16.3252 11.2604 17.2378 10.8702C18.1504 10.4801 19.0641 10.0888 19.9767 9.69865C20.8893 9.3085 21.803 8.91723 22.7156 8.52708C22.9185 8.43963 23.1382 8.30958 23.3557 8.27147C23.5385 8.23895 23.7167 8.17617 23.9006 8.14142C24.2492 8.07527 24.6338 8.04836 24.9679 8.19299C25.0834 8.24344 25.1899 8.31407 25.2784 8.40264C25.7022 8.82193 25.6428 9.5103 25.5531 10.1C24.9286 14.21 24.3042 18.3211 23.6786 22.4312C23.5934 22.9951 23.4768 23.6139 23.0317 23.9704C22.655 24.272 22.1191 24.3057 21.6539 24.1779C21.1886 24.0489 20.7783 23.7787 20.3758 23.513C18.7065 22.4076 17.036 21.3022 15.3667 20.1968C14.9698 19.9344 14.5281 19.5914 14.5326 19.1149C14.5348 18.8279 14.7063 18.5723 14.8812 18.3447C16.3319 16.4522 18.4251 15.1518 19.9823 13.3468C20.202 13.0923 20.3747 12.6326 20.0731 12.4857C19.8937 12.3983 19.6874 12.5171 19.5237 12.6304C17.4654 14.0598 15.4081 15.4903 13.3498 16.9198C12.6782 17.3861 11.9742 17.866 11.1647 17.9803C10.4405 18.0835 9.71176 17.8817 9.01106 17.6754C8.42359 17.5027 7.83723 17.3256 7.25313 17.1429C6.94258 17.0464 6.62194 16.9422 6.38202 16.7236C6.1421 16.5049 6.00422 16.1372 6.14885 15.8457C6.23966 15.663 6.41567 15.5475 6.60066 15.4533L6.60288 15.4545Z" fill="#FEFFFC"/>
</svg>
