<svg width="56" height="56" viewBox="0 0 56 56" fill="none" xmlns="http://www.w3.org/2000/svg">
<path d="M28.0638 0H27.9362C12.5075 0 0 12.5075 0 27.9362V28.0638C0 43.4925 12.5075 56 27.9362 56H28.0638C43.4925 56 56 43.4925 56 28.0638V27.9362C56 12.5075 43.4925 0 28.0638 0Z" fill="#00E510"/>
<path d="M33.4589 36.19C26.2919 36.19 20.4609 30.3571 20.459 23.1901C20.4609 21.3733 21.9403 19.896 23.7531 19.896C23.9395 19.896 24.1239 19.9117 24.3005 19.9431C24.6889 20.0078 25.0578 20.1393 25.3972 20.3374C25.4463 20.3669 25.4796 20.414 25.4875 20.4689L26.2448 25.2423C26.2546 25.2992 26.2369 25.3541 26.1997 25.3953C25.7818 25.8584 25.2481 26.1919 24.6536 26.3587L24.3672 26.4391L24.4751 26.7157C25.4521 29.2035 27.4416 31.191 29.9313 32.1719L30.2079 32.2818L30.2884 31.9954C30.4551 31.4009 30.7887 30.8672 31.2517 30.4493C31.285 30.4179 31.3302 30.4022 31.3753 30.4022C31.3851 30.4022 31.3949 30.4022 31.4067 30.4042L36.1801 31.1615C36.237 31.1713 36.2841 31.2027 36.3135 31.2518C36.5097 31.5912 36.6412 31.962 36.7079 32.3505C36.7393 32.5231 36.753 32.7056 36.753 32.8959C36.753 34.7107 35.2756 36.188 33.4589 36.19Z" fill="#FDFDFD"/>
<path d="M46.1677 26.4273C45.7812 22.06 43.78 18.0085 40.533 15.0205C37.2664 12.0148 33.0285 10.3589 28.5965 10.3589C18.8691 10.3589 10.9546 18.2734 10.9546 28.0008C10.9546 31.2654 11.8551 34.4458 13.5601 37.2161L9.75781 45.6328L21.9317 44.336C24.0487 45.2032 26.2892 45.6426 28.5945 45.6426C29.2008 45.6426 29.8227 45.6112 30.4466 45.5465C30.996 45.4876 31.5512 45.4013 32.0966 45.2914C40.2426 43.6454 46.1893 36.4156 46.2364 28.0949V28.0008C46.2364 27.471 46.2129 26.9413 46.1658 26.4273H46.1677ZM22.4006 40.6416L15.6653 41.3597L17.6763 36.9041L17.2741 36.3646C17.2446 36.3253 17.2152 36.2861 17.1819 36.241C15.4357 33.8297 14.5136 30.981 14.5136 28.0027C14.5136 20.2373 20.8311 13.9198 28.5965 13.9198C35.8714 13.9198 42.0378 19.5958 42.6323 26.8412C42.6637 27.2297 42.6813 27.6201 42.6813 28.0047C42.6813 28.1146 42.6794 28.2225 42.6774 28.3382C42.5283 34.8342 37.9903 40.3513 31.6414 41.756C31.1568 41.8639 30.6605 41.9463 30.166 41.9993C29.652 42.0582 29.1242 42.0876 28.6004 42.0876C26.7346 42.0876 24.9218 41.7266 23.209 41.0124C23.0187 40.9359 22.8323 40.8535 22.6576 40.7691L22.4026 40.6455L22.4006 40.6416Z" fill="#FDFDFD"/>
</svg>
