<!-- icon666.com - MILLIONS OF FREE VECTOR ICONS --><svg id="Capa_1" enable-background="new 0 0 512 512" viewBox="0 0 512 512" xmlns="http://www.w3.org/2000/svg" xmlns:xlink="http://www.w3.org/1999/xlink"><linearGradient id="SVGID_1_" gradientUnits="userSpaceOnUse" x1="256" x2="256" y1="512" y2="0"><stop offset="0" stop-color="#addcff"></stop><stop offset=".5028" stop-color="#eaf6ff"></stop><stop offset="1" stop-color="#eaf6ff"></stop></linearGradient><linearGradient id="SVGID_2_" gradientUnits="userSpaceOnUse" x1="256" x2="256" y1="131.647" y2="380.353"><stop offset="0" stop-color="#5558ff"></stop><stop offset="1" stop-color="#00c0ff"></stop></linearGradient><g><g><g><circle cx="256" cy="256" fill="url(#SVGID_1_)" r="256" style="fill: rgb(0, 102, 204);"></circle></g></g><g><g><path d="m202.706 291.529c-4.909 0-8.882 3.973-8.882 8.882v35.529c0 14.694-11.953 26.647-26.647 26.647-4.91 0-8.882 3.973-8.882 8.882 0 4.91 3.973 8.882 8.882 8.882 24.487 0 44.412-19.925 44.412-44.412v-35.529c-.001-4.908-3.974-8.881-8.883-8.881zm142.117 71.059c-14.694 0-26.647-11.953-26.647-26.647v-35.529c0-4.91-3.973-8.882-8.882-8.882-4.91 0-8.882 3.973-8.882 8.882v35.529c0 24.487 19.925 44.412 44.412 44.412 4.91 0 8.882-3.973 8.882-8.882 0-4.91-3.973-8.883-8.883-8.883zm-106.588-71.059c-4.91 0-8.882 3.973-8.882 8.882v71.059c0 4.91 3.973 8.882 8.882 8.882 4.91 0 8.882-3.973 8.882-8.882v-71.059c.001-4.909-3.972-8.882-8.882-8.882zm35.53 0c-4.91 0-8.882 3.973-8.882 8.882v71.059c0 4.91 3.973 8.882 8.882 8.882 4.91 0 8.882-3.973 8.882-8.882v-71.059c0-4.909-3.973-8.882-8.882-8.882zm71.058-53.294h-177.646c-9.812 0-17.765 7.953-17.765 17.765v8.882c0 4.905 3.977 8.882 8.882 8.882h195.412c4.905 0 8.882-3.977 8.882-8.882v-8.882c0-9.812-7.953-17.765-17.765-17.765zm53.295-106.588h-284.236c-4.91 0-8.882 3.973-8.882 8.882v106.588c0 4.91 3.973 8.882 8.882 8.882h17.765c0-19.595 15.935-35.529 35.53-35.529h177.647c19.595 0 35.53 15.934 35.53 35.529h17.765c4.91 0 8.882-3.973 8.882-8.882v-106.588c-.001-4.909-3.974-8.882-8.883-8.882zm-71.059 53.294c-4.905 0-8.882-3.977-8.882-8.882s3.977-8.882 8.882-8.882 8.882 3.977 8.882 8.882-3.977 8.882-8.882 8.882zm35.529 0c-4.905 0-8.882-3.977-8.882-8.882s3.977-8.882 8.882-8.882 8.882 3.977 8.882 8.882c.001 4.905-3.977 8.882-8.882 8.882z" fill="url(#SVGID_2_)" style="fill: rgb(255, 255, 255);"></path></g></g></g></svg>